<svg width="27" height="27" viewBox="0 0 27 27" fill="none" xmlns="http://www.w3.org/2000/svg">
<g clip-path="url(#clip0_43_178)">
<path d="M12.8078 0.320127C12.8947 -0.10671 13.5047 -0.106708 13.5917 0.320129L15.0291 7.3737C15.0887 7.66626 15.4362 7.79274 15.6699 7.60695L21.305 3.12755C21.646 2.85648 22.1132 3.24854 21.9055 3.63143L18.4726 9.95873C18.3303 10.2212 18.5152 10.5415 18.8136 10.5494L26.0097 10.7401C26.4451 10.7517 26.551 11.3523 26.1458 11.5121L19.449 14.1525C19.1712 14.262 19.107 14.6262 19.3305 14.8241L24.7204 19.5958C25.0466 19.8845 24.7416 20.4127 24.3285 20.2746L17.5012 17.9927C17.218 17.898 16.9347 18.1357 16.9788 18.431L18.0405 25.5509C18.1048 25.9817 17.5316 26.1903 17.3039 25.819L13.5407 19.6824C13.3846 19.4279 13.0148 19.4279 12.8587 19.6824L9.09556 25.819C8.86783 26.1903 8.29469 25.9817 8.35894 25.5509L9.42069 18.431C9.46472 18.1357 9.18143 17.898 8.89826 17.9927L2.07098 20.2746C1.65783 20.4127 1.35287 19.8845 1.67903 19.5958L7.06891 14.8241C7.29246 14.6262 7.22824 14.262 6.95048 14.1525L0.253669 11.5121C-0.151579 11.3523 -0.0456646 10.7517 0.389792 10.7401L7.58581 10.5494C7.88427 10.5415 8.06918 10.2212 7.9268 9.95873L4.49397 3.63142C4.28623 3.24854 4.75346 2.85649 5.09446 3.12755L10.7295 7.60695C10.9632 7.79274 11.3107 7.66626 11.3704 7.3737L12.8078 0.320127Z" fill="#263AB6"/>
</g>
<defs>
<clipPath id="clip0_43_178">
<rect width="27" height="27" fill="white"/>
</clipPath>
</defs>
</svg>
